<mxfile host="Electron" modified="2025-07-04T15:23:12.945Z" agent="Mozilla/5.0 (Windows NT 10.0; Win64; x64) AppleWebKit/537.36 (KHTML, like Gecko) draw.io/24.0.4 Chrome/120.0.6099.109 Electron/28.1.0 Safari/537.36" etag="rPS_99yijqAw6hwLUx14" version="24.0.4" type="device">
  <diagram name="Page-1" id="QD_JOMZgq2UKG0qrrXkf">
    <mxGraphModel dx="1501" dy="713" grid="1" gridSize="10" guides="1" tooltips="1" connect="1" arrows="1" fold="1" page="1" pageScale="1" pageWidth="850" pageHeight="1100" math="0" shadow="0">
      <root>
        <mxCell id="0" />
        <mxCell id="1" parent="0" />
        <mxCell id="LiLLFiUzIS2DZXrTLX4k-4" style="edgeStyle=orthogonalEdgeStyle;rounded=0;orthogonalLoop=1;jettySize=auto;html=1;" edge="1" parent="1" source="LiLLFiUzIS2DZXrTLX4k-1" target="LiLLFiUzIS2DZXrTLX4k-3">
          <mxGeometry relative="1" as="geometry" />
        </mxCell>
        <mxCell id="LiLLFiUzIS2DZXrTLX4k-1" value="start" style="ellipse;whiteSpace=wrap;html=1;" vertex="1" parent="1">
          <mxGeometry x="50" y="50" width="120" height="80" as="geometry" />
        </mxCell>
        <mxCell id="LiLLFiUzIS2DZXrTLX4k-2" value="end" style="ellipse;whiteSpace=wrap;html=1;" vertex="1" parent="1">
          <mxGeometry x="520" y="780" width="120" height="80" as="geometry" />
        </mxCell>
        <mxCell id="LiLLFiUzIS2DZXrTLX4k-63" value="" style="edgeStyle=orthogonalEdgeStyle;rounded=0;orthogonalLoop=1;jettySize=auto;html=1;" edge="1" parent="1" source="LiLLFiUzIS2DZXrTLX4k-3" target="LiLLFiUzIS2DZXrTLX4k-62">
          <mxGeometry relative="1" as="geometry" />
        </mxCell>
        <mxCell id="LiLLFiUzIS2DZXrTLX4k-3" value="fetch reqeust" style="rounded=0;whiteSpace=wrap;html=1;" vertex="1" parent="1">
          <mxGeometry x="260" y="50" width="120" height="60" as="geometry" />
        </mxCell>
        <mxCell id="LiLLFiUzIS2DZXrTLX4k-16" style="edgeStyle=orthogonalEdgeStyle;rounded=0;orthogonalLoop=1;jettySize=auto;html=1;exitX=0.5;exitY=1;exitDx=0;exitDy=0;" edge="1" parent="1" source="LiLLFiUzIS2DZXrTLX4k-8">
          <mxGeometry relative="1" as="geometry">
            <mxPoint x="530" y="200" as="targetPoint" />
          </mxGeometry>
        </mxCell>
        <mxCell id="LiLLFiUzIS2DZXrTLX4k-28" style="edgeStyle=orthogonalEdgeStyle;rounded=0;orthogonalLoop=1;jettySize=auto;html=1;entryX=0.5;entryY=0;entryDx=0;entryDy=0;" edge="1" parent="1" target="LiLLFiUzIS2DZXrTLX4k-19">
          <mxGeometry relative="1" as="geometry">
            <mxPoint x="470" y="230" as="sourcePoint" />
          </mxGeometry>
        </mxCell>
        <mxCell id="LiLLFiUzIS2DZXrTLX4k-64" value="yes" style="edgeStyle=orthogonalEdgeStyle;rounded=0;orthogonalLoop=1;jettySize=auto;html=1;" edge="1" parent="1" source="LiLLFiUzIS2DZXrTLX4k-62" target="LiLLFiUzIS2DZXrTLX4k-65">
          <mxGeometry x="-0.2302" relative="1" as="geometry">
            <mxPoint x="580" y="260" as="targetPoint" />
            <mxPoint x="-1" as="offset" />
          </mxGeometry>
        </mxCell>
        <mxCell id="LiLLFiUzIS2DZXrTLX4k-77" value="no" style="edgeStyle=orthogonalEdgeStyle;rounded=0;orthogonalLoop=1;jettySize=auto;html=1;entryX=0.5;entryY=0;entryDx=0;entryDy=0;" edge="1" parent="1" source="LiLLFiUzIS2DZXrTLX4k-62" target="LiLLFiUzIS2DZXrTLX4k-66">
          <mxGeometry x="-0.7563" relative="1" as="geometry">
            <Array as="points">
              <mxPoint x="400" y="170" />
              <mxPoint x="400" y="340" />
              <mxPoint x="580" y="340" />
            </Array>
            <mxPoint y="1" as="offset" />
          </mxGeometry>
        </mxCell>
        <mxCell id="LiLLFiUzIS2DZXrTLX4k-62" value="user is authenticated&amp;nbsp;" style="rhombus;whiteSpace=wrap;html=1;rounded=0;" vertex="1" parent="1">
          <mxGeometry x="430" y="130" width="80" height="80" as="geometry" />
        </mxCell>
        <mxCell id="LiLLFiUzIS2DZXrTLX4k-67" value="" style="edgeStyle=orthogonalEdgeStyle;rounded=0;orthogonalLoop=1;jettySize=auto;html=1;" edge="1" parent="1" source="LiLLFiUzIS2DZXrTLX4k-65" target="LiLLFiUzIS2DZXrTLX4k-66">
          <mxGeometry relative="1" as="geometry" />
        </mxCell>
        <mxCell id="LiLLFiUzIS2DZXrTLX4k-65" value="get the count of unread notifications" style="rounded=0;whiteSpace=wrap;html=1;" vertex="1" parent="1">
          <mxGeometry x="520" y="230" width="120" height="60" as="geometry" />
        </mxCell>
        <mxCell id="LiLLFiUzIS2DZXrTLX4k-69" value="" style="edgeStyle=orthogonalEdgeStyle;rounded=0;orthogonalLoop=1;jettySize=auto;html=1;" edge="1" parent="1" source="LiLLFiUzIS2DZXrTLX4k-66" target="LiLLFiUzIS2DZXrTLX4k-68">
          <mxGeometry relative="1" as="geometry" />
        </mxCell>
        <mxCell id="LiLLFiUzIS2DZXrTLX4k-66" value="get the leaf id from the session&amp;nbsp;" style="whiteSpace=wrap;html=1;rounded=0;" vertex="1" parent="1">
          <mxGeometry x="520" y="370" width="120" height="60" as="geometry" />
        </mxCell>
        <mxCell id="LiLLFiUzIS2DZXrTLX4k-71" value="" style="edgeStyle=orthogonalEdgeStyle;rounded=0;orthogonalLoop=1;jettySize=auto;html=1;" edge="1" parent="1" source="LiLLFiUzIS2DZXrTLX4k-68" target="LiLLFiUzIS2DZXrTLX4k-70">
          <mxGeometry relative="1" as="geometry" />
        </mxCell>
        <mxCell id="LiLLFiUzIS2DZXrTLX4k-68" value="delete the session" style="whiteSpace=wrap;html=1;rounded=0;" vertex="1" parent="1">
          <mxGeometry x="520" y="450" width="120" height="60" as="geometry" />
        </mxCell>
        <mxCell id="LiLLFiUzIS2DZXrTLX4k-73" value="" style="edgeStyle=orthogonalEdgeStyle;rounded=0;orthogonalLoop=1;jettySize=auto;html=1;" edge="1" parent="1" source="LiLLFiUzIS2DZXrTLX4k-70" target="LiLLFiUzIS2DZXrTLX4k-72">
          <mxGeometry relative="1" as="geometry" />
        </mxCell>
        <mxCell id="LiLLFiUzIS2DZXrTLX4k-70" value="get the image from its id" style="whiteSpace=wrap;html=1;rounded=0;" vertex="1" parent="1">
          <mxGeometry x="520" y="530" width="120" height="60" as="geometry" />
        </mxCell>
        <mxCell id="LiLLFiUzIS2DZXrTLX4k-75" value="" style="edgeStyle=orthogonalEdgeStyle;rounded=0;orthogonalLoop=1;jettySize=auto;html=1;" edge="1" parent="1" source="LiLLFiUzIS2DZXrTLX4k-72" target="LiLLFiUzIS2DZXrTLX4k-2">
          <mxGeometry relative="1" as="geometry" />
        </mxCell>
        <mxCell id="LiLLFiUzIS2DZXrTLX4k-72" value="render the result page" style="whiteSpace=wrap;html=1;rounded=0;" vertex="1" parent="1">
          <mxGeometry x="520" y="670" width="120" height="60" as="geometry" />
        </mxCell>
      </root>
    </mxGraphModel>
  </diagram>
</mxfile>
